<?xml version="1.0" encoding="UTF-8"?><svg viewBox="0 0 64 64" fill="none" xmlns="http://www.w3.org/2000/svg" aria-hidden="true"><path d="M7.6 38.9 A26 26 0 1 1 56.4 38.9" stroke="#1e3d6e" stroke-width="3.6" stroke-linecap="round"/><path d="M25 45 V20 a4 4 0 0 1 8 0 v3 M39 49 V20 a4 4 0 0 1 8 0 v3 M25 31 H39 M25 39 H39" stroke="#1e3d6e" stroke-width="3.4" stroke-linecap="round" stroke-linejoin="round"/><path d="M6 48 C16 42.5 26 42.5 32 46.5 39 51 49 51.5 58 46.5" stroke="#3579c0" stroke-width="3.4" stroke-linecap="round"/><path d="M10 55 C19 50 27 50 33 53 40 56.5 48 57 56 53" stroke="#3579c0" stroke-width="3.4" stroke-linecap="round"/></svg>